<svg xmlns="http://www.w3.org/2000/svg" viewBox="0 0 880 200" style="background:#0f0f0f;font-family:Manrope,system-ui,sans-serif"><text x="40" y="22" fill="#e6e6e6" font-size="14" font-weight="600">Ruby (trigonal R-3c) — 7 partials over A2 (110 Hz)</text><line x1="72.6" y1="36" x2="72.6" y2="156" stroke="#2a2a2a" stroke-width="1"/><text x="72.6" y="174" fill="#888" font-size="11" text-anchor="middle">100 Hz</text><line x1="408.6" y1="36" x2="408.6" y2="156" stroke="#2a2a2a" stroke-width="1"/><text x="408.6" y="174" fill="#888" font-size="11" text-anchor="middle">1000 Hz</text><line x1="744.6" y1="36" x2="744.6" y2="156" stroke="#2a2a2a" stroke-width="1"/><text x="744.6" y="174" fill="#888" font-size="11" text-anchor="middle">10000 Hz</text><line x1="86.5" y1="54" x2="86.5" y2="156" stroke="#ff6b6b" stroke-width="2.2"/><circle cx="86.5" cy="54" r="4" fill="#ff6b6b"/><text x="86.5" y="48" fill="#e6e6e6" font-size="10" text-anchor="middle">1</text><line x1="100.4" y1="54" x2="100.4" y2="156" stroke="#ff6b6b" stroke-width="2.2"/><circle cx="100.4" cy="54" r="4" fill="#ff6b6b"/><text x="100.4" y="48" fill="#e6e6e6" font-size="10" text-anchor="middle">1.1</text><line x1="105.6" y1="54" x2="105.6" y2="156" stroke="#ff6b6b" stroke-width="2.2"/><circle cx="105.6" cy="54" r="4" fill="#ff6b6b"/><text x="105.6" y="48" fill="#e6e6e6" font-size="10" text-anchor="middle">1.14</text><line x1="111.9" y1="54" x2="111.9" y2="156" stroke="#ff6b6b" stroke-width="2.2"/><circle cx="111.9" cy="54" r="4" fill="#ff6b6b"/><text x="111.9" y="48" fill="#e6e6e6" font-size="10" text-anchor="middle">1.19</text><line x1="147.6" y1="54" x2="147.6" y2="156" stroke="#ff6b6b" stroke-width="2.2"/><circle cx="147.6" cy="54" r="4" fill="#ff6b6b"/><text x="147.6" y="48" fill="#e6e6e6" font-size="10" text-anchor="middle">1.52</text><line x1="163.9" y1="54" x2="163.9" y2="156" stroke="#ff6b6b" stroke-width="2.2"/><circle cx="163.9" cy="54" r="4" fill="#ff6b6b"/><text x="163.9" y="48" fill="#e6e6e6" font-size="10" text-anchor="middle">1.7</text><line x1="186.2" y1="54" x2="186.2" y2="156" stroke="#ff6b6b" stroke-width="2.2"/><circle cx="186.2" cy="54" r="4" fill="#ff6b6b"/><text x="186.2" y="48" fill="#e6e6e6" font-size="10" text-anchor="middle">1.98</text></svg>