<svg xmlns="http://www.w3.org/2000/svg" viewBox="0 0 1200 300" width="1200" height="300"><rect width="1200" height="300" fill="#0a0a0f"></rect><rect x="1.0" y="1.0" width="35.5" height="35.5" fill="#e8b84a" fill-opacity="0.38"></rect><rect x="38.5" y="1.0" width="35.5" height="35.5" fill="#e8b84a" fill-opacity="0.05"></rect><rect x="76.0" y="1.0" width="35.5" height="35.5" fill="#e8b84a" fill-opacity="0.05"></rect><rect x="113.5" y="1.0" width="35.5" height="35.5" fill="#e8b84a" fill-opacity="0.25"></rect><rect x="151.0" y="1.0" width="35.5" height="35.5" fill="#e8b84a" fill-opacity="0.05"></rect><rect x="188.5" y="1.0" width="35.5" height="35.5" fill="#e8b84a" fill-opacity="0.05"></rect><rect x="226.0" y="1.0" width="35.5" height="35.5" fill="#e8b84a" fill-opacity="0.05"></rect><rect x="263.5" y="1.0" width="35.5" height="35.5" fill="#e8b84a" fill-opacity="0.05"></rect><rect x="301.0" y="1.0" width="35.5" height="35.5" fill="#e8b84a" fill-opacity="0.05"></rect><rect x="338.5" y="1.0" width="35.5" height="35.5" fill="#e8b84a" fill-opacity="0.05"></rect><rect x="376.0" y="1.0" width="35.5" height="35.5" fill="#e8b84a" fill-opacity="0.74"></rect><rect x="413.5" y="1.0" width="35.5" height="35.5" fill="#e8b84a" fill-opacity="0.70"></rect><rect x="451.0" y="1.0" width="35.5" height="35.5" fill="#e8b84a" fill-opacity="0.62"></rect><rect x="488.5" y="1.0" width="35.5" height="35.5" fill="#e8b84a" fill-opacity="0.05"></rect><rect x="526.0" y="1.0" width="35.5" height="35.5" fill="#e8b84a" fill-opacity="0.67"></rect><rect x="563.5" y="1.0" width="35.5" height="35.5" fill="#e8b84a" fill-opacity="0.05"></rect><rect x="601.0" y="1.0" width="35.5" height="35.5" fill="#e8b84a" fill-opacity="0.74"></rect><rect x="638.5" y="1.0" width="35.5" height="35.5" fill="#e8b84a" fill-opacity="0.05"></rect><rect x="676.0" y="1.0" width="35.5" height="35.5" fill="#e8b84a" fill-opacity="0.05"></rect><rect x="713.5" y="1.0" width="35.5" height="35.5" fill="#e8b84a" fill-opacity="0.52"></rect><rect x="751.0" y="1.0" width="35.5" height="35.5" fill="#e8b84a" fill-opacity="0.66"></rect><rect x="788.5" y="1.0" width="35.5" height="35.5" fill="#e8b84a" fill-opacity="0.48"></rect><rect x="826.0" y="1.0" width="35.5" height="35.5" fill="#e8b84a" fill-opacity="0.05"></rect><rect x="863.5" y="1.0" width="35.5" height="35.5" fill="#e8b84a" fill-opacity="0.05"></rect><rect x="901.0" y="1.0" width="35.5" height="35.5" fill="#e8b84a" fill-opacity="0.05"></rect><rect x="938.5" y="1.0" width="35.5" height="35.5" fill="#e8b84a" fill-opacity="0.05"></rect><rect x="976.0" y="1.0" width="35.5" height="35.5" fill="#e8b84a" fill-opacity="0.05"></rect><rect x="1013.5" y="1.0" width="35.5" height="35.5" fill="#e8b84a" fill-opacity="0.68"></rect><rect x="1051.0" y="1.0" width="35.5" height="35.5" fill="#e8b84a" fill-opacity="0.05"></rect><rect x="1088.5" y="1.0" width="35.5" height="35.5" fill="#e8b84a" fill-opacity="0.05"></rect><rect x="1126.0" y="1.0" width="35.5" height="35.5" fill="#e8b84a" fill-opacity="0.05"></rect><rect x="1163.5" y="1.0" width="35.5" height="35.5" fill="#e8b84a" fill-opacity="0.05"></rect><rect x="1.0" y="38.5" width="35.5" height="35.5" fill="#e8b84a" fill-opacity="0.44"></rect><rect x="38.5" y="38.5" width="35.5" height="35.5" fill="#e8b84a" fill-opacity="0.74"></rect><rect x="76.0" y="38.5" width="35.5" height="35.5" fill="#e8b84a" fill-opacity="0.05"></rect><rect x="113.5" y="38.5" width="35.5" height="35.5" fill="#e8b84a" fill-opacity="0.05"></rect><rect x="151.0" y="38.5" width="35.5" height="35.5" fill="#e8b84a" fill-opacity="0.05"></rect><rect x="188.5" y="38.5" width="35.5" height="35.5" fill="#e8b84a" fill-opacity="0.05"></rect><rect x="226.0" y="38.5" width="35.5" height="35.5" fill="#e8b84a" fill-opacity="0.21"></rect><rect x="263.5" y="38.5" width="35.5" height="35.5" fill="#e8b84a" fill-opacity="0.05"></rect><rect x="301.0" y="38.5" width="35.5" height="35.5" fill="#e8b84a" fill-opacity="0.05"></rect><rect x="338.5" y="38.5" width="35.5" height="35.5" fill="#e8b84a" fill-opacity="0.05"></rect><rect x="376.0" y="38.5" width="35.5" height="35.5" fill="#e8b84a" fill-opacity="0.05"></rect><rect x="413.5" y="38.5" width="35.5" height="35.5" fill="#e8b84a" fill-opacity="0.05"></rect><rect x="451.0" y="38.5" width="35.5" height="35.5" fill="#e8b84a" fill-opacity="0.05"></rect><rect x="488.5" y="38.5" width="35.5" height="35.5" fill="#e8b84a" fill-opacity="0.05"></rect><rect x="526.0" y="38.5" width="35.5" height="35.5" fill="#e8b84a" fill-opacity="0.05"></rect><rect x="563.5" y="38.5" width="35.5" height="35.5" fill="#e8b84a" fill-opacity="0.29"></rect><rect x="601.0" y="38.5" width="35.5" height="35.5" fill="#e8b84a" fill-opacity="0.05"></rect><rect x="638.5" y="38.5" width="35.5" height="35.5" fill="#e8b84a" fill-opacity="0.05"></rect><rect x="676.0" y="38.5" width="35.5" height="35.5" fill="#e8b84a" fill-opacity="0.05"></rect><rect x="713.5" y="38.5" width="35.5" height="35.5" fill="#e8b84a" fill-opacity="0.75"></rect><rect x="751.0" y="38.5" width="35.5" height="35.5" fill="#e8b84a" fill-opacity="0.78"></rect><rect x="788.5" y="38.5" width="35.5" height="35.5" fill="#e8b84a" fill-opacity="0.05"></rect><rect x="826.0" y="38.5" width="35.5" height="35.5" fill="#e8b84a" fill-opacity="0.25"></rect><rect x="863.5" y="38.5" width="35.5" height="35.5" fill="#e8b84a" fill-opacity="0.05"></rect><rect x="901.0" y="38.5" width="35.5" height="35.5" fill="#e8b84a" fill-opacity="0.05"></rect><rect x="938.5" y="38.5" width="35.5" height="35.5" fill="#e8b84a" fill-opacity="0.05"></rect><rect x="976.0" y="38.5" width="35.5" height="35.5" fill="#e8b84a" fill-opacity="0.27"></rect><rect x="1013.5" y="38.5" width="35.5" height="35.5" fill="#e8b84a" fill-opacity="0.29"></rect><rect x="1051.0" y="38.5" width="35.5" height="35.5" fill="#e8b84a" fill-opacity="0.05"></rect><rect x="1088.5" y="38.5" width="35.5" height="35.5" fill="#e8b84a" fill-opacity="0.32"></rect><rect x="1126.0" y="38.5" width="35.5" height="35.5" fill="#e8b84a" fill-opacity="0.59"></rect><rect x="1163.5" y="38.5" width="35.5" height="35.5" fill="#e8b84a" fill-opacity="0.05"></rect><rect x="1.0" y="76.0" width="35.5" height="35.5" fill="#e8b84a" fill-opacity="0.05"></rect><rect x="38.5" y="76.0" width="35.5" height="35.5" fill="#e8b84a" fill-opacity="0.05"></rect><rect x="76.0" y="76.0" width="35.5" height="35.5" fill="#e8b84a" fill-opacity="0.05"></rect><rect x="113.5" y="76.0" width="35.5" height="35.5" fill="#e8b84a" fill-opacity="0.05"></rect><rect x="151.0" y="76.0" width="35.5" height="35.5" fill="#e8b84a" fill-opacity="0.05"></rect><rect x="188.5" y="76.0" width="35.5" height="35.5" fill="#e8b84a" fill-opacity="0.05"></rect><rect x="226.0" y="76.0" width="35.5" height="35.5" fill="#e8b84a" fill-opacity="0.05"></rect><rect x="263.5" y="76.0" width="35.5" height="35.5" fill="#e8b84a" fill-opacity="0.85"></rect><rect x="301.0" y="76.0" width="35.5" height="35.5" fill="#e8b84a" fill-opacity="0.05"></rect><rect x="338.5" y="76.0" width="35.5" height="35.5" fill="#e8b84a" fill-opacity="0.05"></rect><rect x="376.0" y="76.0" width="35.5" height="35.5" fill="#e8b84a" fill-opacity="0.35"></rect><rect x="413.5" y="76.0" width="35.5" height="35.5" fill="#e8b84a" fill-opacity="0.05"></rect><rect x="451.0" y="76.0" width="35.5" height="35.5" fill="#e8b84a" fill-opacity="0.05"></rect><rect x="488.5" y="76.0" width="35.5" height="35.5" fill="#e8b84a" fill-opacity="0.61"></rect><rect x="526.0" y="76.0" width="35.5" height="35.5" fill="#e8b84a" fill-opacity="0.76"></rect><rect x="563.5" y="76.0" width="35.5" height="35.5" fill="#e8b84a" fill-opacity="0.25"></rect><rect x="601.0" y="76.0" width="35.5" height="35.5" fill="#e8b84a" fill-opacity="0.05"></rect><rect x="638.5" y="76.0" width="35.5" height="35.5" fill="#e8b84a" fill-opacity="0.05"></rect><rect x="676.0" y="76.0" width="35.5" height="35.5" fill="#e8b84a" fill-opacity="0.05"></rect><rect x="713.5" y="76.0" width="35.5" height="35.5" fill="#e8b84a" fill-opacity="0.05"></rect><rect x="751.0" y="76.0" width="35.5" height="35.5" fill="#e8b84a" fill-opacity="0.05"></rect><rect x="788.5" y="76.0" width="35.5" height="35.5" fill="#e8b84a" fill-opacity="0.05"></rect><rect x="826.0" y="76.0" width="35.5" height="35.5" fill="#e8b84a" fill-opacity="0.20"></rect><rect x="863.5" y="76.0" width="35.5" height="35.5" fill="#e8b84a" fill-opacity="0.05"></rect><rect x="901.0" y="76.0" width="35.5" height="35.5" fill="#e8b84a" fill-opacity="0.64"></rect><rect x="938.5" y="76.0" width="35.5" height="35.5" fill="#e8b84a" fill-opacity="0.05"></rect><rect x="976.0" y="76.0" width="35.5" height="35.5" fill="#e8b84a" fill-opacity="0.05"></rect><rect x="1013.5" y="76.0" width="35.5" height="35.5" fill="#e8b84a" fill-opacity="0.05"></rect><rect x="1051.0" y="76.0" width="35.5" height="35.5" fill="#e8b84a" fill-opacity="0.85"></rect><rect x="1088.5" y="76.0" width="35.5" height="35.5" fill="#e8b84a" fill-opacity="0.05"></rect><rect x="1126.0" y="76.0" width="35.5" height="35.5" fill="#e8b84a" fill-opacity="0.05"></rect><rect x="1163.5" y="76.0" width="35.5" height="35.5" fill="#e8b84a" fill-opacity="0.32"></rect><rect x="1.0" y="113.5" width="35.5" height="35.5" fill="#e8b84a" fill-opacity="0.05"></rect><rect x="38.5" y="113.5" width="35.5" height="35.5" fill="#e8b84a" fill-opacity="0.05"></rect><rect x="76.0" y="113.5" width="35.5" height="35.5" fill="#e8b84a" fill-opacity="0.05"></rect><rect x="113.5" y="113.5" width="35.5" height="35.5" fill="#e8b84a" fill-opacity="0.05"></rect><rect x="151.0" y="113.5" width="35.5" height="35.5" fill="#e8b84a" fill-opacity="0.05"></rect><rect x="188.5" y="113.5" width="35.5" height="35.5" fill="#e8b84a" fill-opacity="0.70"></rect><rect x="226.0" y="113.5" width="35.5" height="35.5" fill="#e8b84a" fill-opacity="0.05"></rect><rect x="263.5" y="113.5" width="35.5" height="35.5" fill="#e8b84a" fill-opacity="0.05"></rect><rect x="301.0" y="113.5" width="35.5" height="35.5" fill="#e8b84a" fill-opacity="0.05"></rect><rect x="338.5" y="113.5" width="35.5" height="35.5" fill="#e8b84a" fill-opacity="0.26"></rect><rect x="376.0" y="113.5" width="35.5" height="35.5" fill="#e8b84a" fill-opacity="0.05"></rect><rect x="413.5" y="113.5" width="35.5" height="35.5" fill="#e8b84a" fill-opacity="0.05"></rect><rect x="451.0" y="113.5" width="35.5" height="35.5" fill="#e8b84a" fill-opacity="0.05"></rect><rect x="488.5" y="113.5" width="35.5" height="35.5" fill="#e8b84a" fill-opacity="0.21"></rect><rect x="526.0" y="113.5" width="35.5" height="35.5" fill="#e8b84a" fill-opacity="0.58"></rect><rect x="563.5" y="113.5" width="35.5" height="35.5" fill="#e8b84a" fill-opacity="0.05"></rect><rect x="601.0" y="113.5" width="35.5" height="35.5" fill="#e8b84a" fill-opacity="0.05"></rect><rect x="638.5" y="113.5" width="35.5" height="35.5" fill="#e8b84a" fill-opacity="0.05"></rect><rect x="676.0" y="113.5" width="35.5" height="35.5" fill="#e8b84a" fill-opacity="0.05"></rect><rect x="713.5" y="113.5" width="35.5" height="35.5" fill="#e8b84a" fill-opacity="0.80"></rect><rect x="751.0" y="113.5" width="35.5" height="35.5" fill="#e8b84a" fill-opacity="0.05"></rect><rect x="788.5" y="113.5" width="35.5" height="35.5" fill="#e8b84a" fill-opacity="0.05"></rect><rect x="826.0" y="113.5" width="35.5" height="35.5" fill="#e8b84a" fill-opacity="0.05"></rect><rect x="863.5" y="113.5" width="35.5" height="35.5" fill="#e8b84a" fill-opacity="0.05"></rect><rect x="901.0" y="113.5" width="35.5" height="35.5" fill="#e8b84a" fill-opacity="0.58"></rect><rect x="938.5" y="113.5" width="35.5" height="35.5" fill="#e8b84a" fill-opacity="0.23"></rect><rect x="976.0" y="113.5" width="35.5" height="35.5" fill="#e8b84a" fill-opacity="0.05"></rect><rect x="1013.5" y="113.5" width="35.5" height="35.5" fill="#e8b84a" fill-opacity="0.05"></rect><rect x="1051.0" y="113.5" width="35.5" height="35.5" fill="#e8b84a" fill-opacity="0.05"></rect><rect x="1088.5" y="113.5" width="35.5" height="35.5" fill="#e8b84a" fill-opacity="0.05"></rect><rect x="1126.0" y="113.5" width="35.5" height="35.5" fill="#e8b84a" fill-opacity="0.05"></rect><rect x="1163.5" y="113.5" width="35.5" height="35.5" fill="#e8b84a" fill-opacity="0.32"></rect><rect x="1.0" y="151.0" width="35.5" height="35.5" fill="#e8b84a" fill-opacity="0.05"></rect><rect x="38.5" y="151.0" width="35.5" height="35.5" fill="#e8b84a" fill-opacity="0.81"></rect><rect x="76.0" y="151.0" width="35.5" height="35.5" fill="#e8b84a" fill-opacity="0.56"></rect><rect x="113.5" y="151.0" width="35.5" height="35.5" fill="#e8b84a" fill-opacity="0.05"></rect><rect x="151.0" y="151.0" width="35.5" height="35.5" fill="#e8b84a" fill-opacity="0.05"></rect><rect x="188.5" y="151.0" width="35.5" height="35.5" fill="#e8b84a" fill-opacity="0.05"></rect><rect x="226.0" y="151.0" width="35.5" height="35.5" fill="#e8b84a" fill-opacity="0.05"></rect><rect x="263.5" y="151.0" width="35.5" height="35.5" fill="#e8b84a" fill-opacity="0.32"></rect><rect x="301.0" y="151.0" width="35.5" height="35.5" fill="#e8b84a" fill-opacity="0.05"></rect><rect x="338.5" y="151.0" width="35.5" height="35.5" fill="#e8b84a" fill-opacity="0.29"></rect><rect x="376.0" y="151.0" width="35.5" height="35.5" fill="#e8b84a" fill-opacity="0.23"></rect><rect x="413.5" y="151.0" width="35.5" height="35.5" fill="#e8b84a" fill-opacity="0.05"></rect><rect x="451.0" y="151.0" width="35.5" height="35.5" fill="#e8b84a" fill-opacity="0.05"></rect><rect x="488.5" y="151.0" width="35.5" height="35.5" fill="#e8b84a" fill-opacity="0.46"></rect><rect x="526.0" y="151.0" width="35.5" height="35.5" fill="#e8b84a" fill-opacity="0.05"></rect><rect x="563.5" y="151.0" width="35.5" height="35.5" fill="#e8b84a" fill-opacity="0.05"></rect><rect x="601.0" y="151.0" width="35.5" height="35.5" fill="#e8b84a" fill-opacity="0.26"></rect><rect x="638.5" y="151.0" width="35.5" height="35.5" fill="#e8b84a" fill-opacity="0.05"></rect><rect x="676.0" y="151.0" width="35.5" height="35.5" fill="#e8b84a" fill-opacity="0.05"></rect><rect x="713.5" y="151.0" width="35.5" height="35.5" fill="#e8b84a" fill-opacity="0.05"></rect><rect x="751.0" y="151.0" width="35.5" height="35.5" fill="#e8b84a" fill-opacity="0.05"></rect><rect x="788.5" y="151.0" width="35.5" height="35.5" fill="#e8b84a" fill-opacity="0.05"></rect><rect x="826.0" y="151.0" width="35.5" height="35.5" fill="#e8b84a" fill-opacity="0.05"></rect><rect x="863.5" y="151.0" width="35.5" height="35.5" fill="#e8b84a" fill-opacity="0.61"></rect><rect x="901.0" y="151.0" width="35.5" height="35.5" fill="#e8b84a" fill-opacity="0.05"></rect><rect x="938.5" y="151.0" width="35.5" height="35.5" fill="#e8b84a" fill-opacity="0.05"></rect><rect x="976.0" y="151.0" width="35.5" height="35.5" fill="#e8b84a" fill-opacity="0.05"></rect><rect x="1013.5" y="151.0" width="35.5" height="35.5" fill="#e8b84a" fill-opacity="0.69"></rect><rect x="1051.0" y="151.0" width="35.5" height="35.5" fill="#e8b84a" fill-opacity="0.05"></rect><rect x="1088.5" y="151.0" width="35.5" height="35.5" fill="#e8b84a" fill-opacity="0.58"></rect><rect x="1126.0" y="151.0" width="35.5" height="35.5" fill="#e8b84a" fill-opacity="0.05"></rect><rect x="1163.5" y="151.0" width="35.5" height="35.5" fill="#e8b84a" fill-opacity="0.44"></rect><rect x="1.0" y="188.5" width="35.5" height="35.5" fill="#e8b84a" fill-opacity="0.05"></rect><rect x="38.5" y="188.5" width="35.5" height="35.5" fill="#e8b84a" fill-opacity="0.05"></rect><rect x="76.0" y="188.5" width="35.5" height="35.5" fill="#e8b84a" fill-opacity="0.05"></rect><rect x="113.5" y="188.5" width="35.5" height="35.5" fill="#e8b84a" fill-opacity="0.05"></rect><rect x="151.0" y="188.5" width="35.5" height="35.5" fill="#e8b84a" fill-opacity="0.05"></rect><rect x="188.5" y="188.5" width="35.5" height="35.5" fill="#e8b84a" fill-opacity="0.05"></rect><rect x="226.0" y="188.5" width="35.5" height="35.5" fill="#e8b84a" fill-opacity="0.43"></rect><rect x="263.5" y="188.5" width="35.5" height="35.5" fill="#e8b84a" fill-opacity="0.60"></rect><rect x="301.0" y="188.5" width="35.5" height="35.5" fill="#e8b84a" fill-opacity="0.41"></rect><rect x="338.5" y="188.5" width="35.5" height="35.5" fill="#e8b84a" fill-opacity="0.05"></rect><rect x="376.0" y="188.5" width="35.5" height="35.5" fill="#e8b84a" fill-opacity="0.05"></rect><rect x="413.5" y="188.5" width="35.5" height="35.5" fill="#e8b84a" fill-opacity="0.23"></rect><rect x="451.0" y="188.5" width="35.5" height="35.5" fill="#e8b84a" fill-opacity="0.49"></rect><rect x="488.5" y="188.5" width="35.5" height="35.5" fill="#e8b84a" fill-opacity="0.20"></rect><rect x="526.0" y="188.5" width="35.5" height="35.5" fill="#e8b84a" fill-opacity="0.05"></rect><rect x="563.5" y="188.5" width="35.5" height="35.5" fill="#e8b84a" fill-opacity="0.20"></rect><rect x="601.0" y="188.5" width="35.5" height="35.5" fill="#e8b84a" fill-opacity="0.05"></rect><rect x="638.5" y="188.5" width="35.5" height="35.5" fill="#e8b84a" fill-opacity="0.05"></rect><rect x="676.0" y="188.5" width="35.5" height="35.5" fill="#e8b84a" fill-opacity="0.05"></rect><rect x="713.5" y="188.5" width="35.5" height="35.5" fill="#e8b84a" fill-opacity="0.05"></rect><rect x="751.0" y="188.5" width="35.5" height="35.5" fill="#e8b84a" fill-opacity="0.71"></rect><rect x="788.5" y="188.5" width="35.5" height="35.5" fill="#e8b84a" fill-opacity="0.72"></rect><rect x="826.0" y="188.5" width="35.5" height="35.5" fill="#e8b84a" fill-opacity="0.81"></rect><rect x="863.5" y="188.5" width="35.5" height="35.5" fill="#e8b84a" fill-opacity="0.05"></rect><rect x="901.0" y="188.5" width="35.5" height="35.5" fill="#e8b84a" fill-opacity="0.05"></rect><rect x="938.5" y="188.5" width="35.5" height="35.5" fill="#e8b84a" fill-opacity="0.45"></rect><rect x="976.0" y="188.5" width="35.5" height="35.5" fill="#e8b84a" fill-opacity="0.27"></rect><rect x="1013.5" y="188.5" width="35.5" height="35.5" fill="#e8b84a" fill-opacity="0.35"></rect><rect x="1051.0" y="188.5" width="35.5" height="35.5" fill="#e8b84a" fill-opacity="0.05"></rect><rect x="1088.5" y="188.5" width="35.5" height="35.5" fill="#e8b84a" fill-opacity="0.84"></rect><rect x="1126.0" y="188.5" width="35.5" height="35.5" fill="#e8b84a" fill-opacity="0.05"></rect><rect x="1163.5" y="188.5" width="35.5" height="35.5" fill="#e8b84a" fill-opacity="0.05"></rect><rect x="1.0" y="226.0" width="35.5" height="35.5" fill="#e8b84a" fill-opacity="0.05"></rect><rect x="38.5" y="226.0" width="35.5" height="35.5" fill="#e8b84a" fill-opacity="0.05"></rect><rect x="76.0" y="226.0" width="35.5" height="35.5" fill="#e8b84a" fill-opacity="0.05"></rect><rect x="113.5" y="226.0" width="35.5" height="35.5" fill="#e8b84a" fill-opacity="0.05"></rect><rect x="151.0" y="226.0" width="35.5" height="35.5" fill="#e8b84a" fill-opacity="0.05"></rect><rect x="188.5" y="226.0" width="35.5" height="35.5" fill="#e8b84a" fill-opacity="0.81"></rect><rect x="226.0" y="226.0" width="35.5" height="35.5" fill="#e8b84a" fill-opacity="0.05"></rect><rect x="263.5" y="226.0" width="35.5" height="35.5" fill="#e8b84a" fill-opacity="0.05"></rect><rect x="301.0" y="226.0" width="35.5" height="35.5" fill="#e8b84a" fill-opacity="0.05"></rect><rect x="338.5" y="226.0" width="35.5" height="35.5" fill="#e8b84a" fill-opacity="0.49"></rect><rect x="376.0" y="226.0" width="35.5" height="35.5" fill="#e8b84a" fill-opacity="0.05"></rect><rect x="413.5" y="226.0" width="35.5" height="35.5" fill="#e8b84a" fill-opacity="0.05"></rect><rect x="451.0" y="226.0" width="35.5" height="35.5" fill="#e8b84a" fill-opacity="0.31"></rect><rect x="488.5" y="226.0" width="35.5" height="35.5" fill="#e8b84a" fill-opacity="0.05"></rect><rect x="526.0" y="226.0" width="35.5" height="35.5" fill="#e8b84a" fill-opacity="0.05"></rect><rect x="563.5" y="226.0" width="35.5" height="35.5" fill="#e8b84a" fill-opacity="0.05"></rect><rect x="601.0" y="226.0" width="35.5" height="35.5" fill="#e8b84a" fill-opacity="0.05"></rect><rect x="638.5" y="226.0" width="35.5" height="35.5" fill="#e8b84a" fill-opacity="0.05"></rect><rect x="676.0" y="226.0" width="35.5" height="35.5" fill="#e8b84a" fill-opacity="0.05"></rect><rect x="713.5" y="226.0" width="35.5" height="35.5" fill="#e8b84a" fill-opacity="0.05"></rect><rect x="751.0" y="226.0" width="35.5" height="35.5" fill="#e8b84a" fill-opacity="0.77"></rect><rect x="788.5" y="226.0" width="35.5" height="35.5" fill="#e8b84a" fill-opacity="0.05"></rect><rect x="826.0" y="226.0" width="35.5" height="35.5" fill="#e8b84a" fill-opacity="0.05"></rect><rect x="863.5" y="226.0" width="35.5" height="35.5" fill="#e8b84a" fill-opacity="0.05"></rect><rect x="901.0" y="226.0" width="35.5" height="35.5" fill="#e8b84a" fill-opacity="0.05"></rect><rect x="938.5" y="226.0" width="35.5" height="35.5" fill="#e8b84a" fill-opacity="0.05"></rect><rect x="976.0" y="226.0" width="35.5" height="35.5" fill="#e8b84a" fill-opacity="0.05"></rect><rect x="1013.5" y="226.0" width="35.5" height="35.5" fill="#e8b84a" fill-opacity="0.05"></rect><rect x="1051.0" y="226.0" width="35.5" height="35.5" fill="#e8b84a" fill-opacity="0.05"></rect><rect x="1088.5" y="226.0" width="35.5" height="35.5" fill="#e8b84a" fill-opacity="0.05"></rect><rect x="1126.0" y="226.0" width="35.5" height="35.5" fill="#e8b84a" fill-opacity="0.40"></rect><rect x="1163.5" y="226.0" width="35.5" height="35.5" fill="#e8b84a" fill-opacity="0.05"></rect><rect x="1.0" y="263.5" width="35.5" height="35.5" fill="#e8b84a" fill-opacity="0.71"></rect><rect x="38.5" y="263.5" width="35.5" height="35.5" fill="#e8b84a" fill-opacity="0.23"></rect><rect x="76.0" y="263.5" width="35.5" height="35.5" fill="#e8b84a" fill-opacity="0.05"></rect><rect x="113.5" y="263.5" width="35.5" height="35.5" fill="#e8b84a" fill-opacity="0.63"></rect><rect x="151.0" y="263.5" width="35.5" height="35.5" fill="#e8b84a" fill-opacity="0.05"></rect><rect x="188.5" y="263.5" width="35.5" height="35.5" fill="#e8b84a" fill-opacity="0.05"></rect><rect x="226.0" y="263.5" width="35.5" height="35.5" fill="#e8b84a" fill-opacity="0.72"></rect><rect x="263.5" y="263.5" width="35.5" height="35.5" fill="#e8b84a" fill-opacity="0.05"></rect><rect x="301.0" y="263.5" width="35.5" height="35.5" fill="#e8b84a" fill-opacity="0.80"></rect><rect x="338.5" y="263.5" width="35.5" height="35.5" fill="#e8b84a" fill-opacity="0.05"></rect><rect x="376.0" y="263.5" width="35.5" height="35.5" fill="#e8b84a" fill-opacity="0.53"></rect><rect x="413.5" y="263.5" width="35.5" height="35.5" fill="#e8b84a" fill-opacity="0.05"></rect><rect x="451.0" y="263.5" width="35.5" height="35.5" fill="#e8b84a" fill-opacity="0.50"></rect><rect x="488.5" y="263.5" width="35.5" height="35.5" fill="#e8b84a" fill-opacity="0.05"></rect><rect x="526.0" y="263.5" width="35.5" height="35.5" fill="#e8b84a" fill-opacity="0.05"></rect><rect x="563.5" y="263.5" width="35.5" height="35.5" fill="#e8b84a" fill-opacity="0.05"></rect><rect x="601.0" y="263.5" width="35.5" height="35.5" fill="#e8b84a" fill-opacity="0.05"></rect><rect x="638.5" y="263.5" width="35.5" height="35.5" fill="#e8b84a" fill-opacity="0.05"></rect><rect x="676.0" y="263.5" width="35.5" height="35.5" fill="#e8b84a" fill-opacity="0.82"></rect><rect x="713.5" y="263.5" width="35.5" height="35.5" fill="#e8b84a" fill-opacity="0.05"></rect><rect x="751.0" y="263.5" width="35.5" height="35.5" fill="#e8b84a" fill-opacity="0.05"></rect><rect x="788.5" y="263.5" width="35.5" height="35.5" fill="#e8b84a" fill-opacity="0.05"></rect><rect x="826.0" y="263.5" width="35.5" height="35.5" fill="#e8b84a" fill-opacity="0.05"></rect><rect x="863.5" y="263.5" width="35.5" height="35.5" fill="#e8b84a" fill-opacity="0.05"></rect><rect x="901.0" y="263.5" width="35.5" height="35.5" fill="#e8b84a" fill-opacity="0.37"></rect><rect x="938.5" y="263.5" width="35.5" height="35.5" fill="#e8b84a" fill-opacity="0.05"></rect><rect x="976.0" y="263.5" width="35.5" height="35.5" fill="#e8b84a" fill-opacity="0.05"></rect><rect x="1013.5" y="263.5" width="35.5" height="35.5" fill="#e8b84a" fill-opacity="0.05"></rect><rect x="1051.0" y="263.5" width="35.5" height="35.5" fill="#e8b84a" fill-opacity="0.53"></rect><rect x="1088.5" y="263.5" width="35.5" height="35.5" fill="#e8b84a" fill-opacity="0.57"></rect><rect x="1126.0" y="263.5" width="35.5" height="35.5" fill="#e8b84a" fill-opacity="0.05"></rect><rect x="1163.5" y="263.5" width="35.5" height="35.5" fill="#e8b84a" fill-opacity="0.05"></rect></svg>